REM DIRINDEX 1\2,1\3,1\5,1\4\6,1\4\7
REM DIRNAME cjc065,folder01,folder02,folder03,folder04,folder05,folder06
TITLE ""
FILE "Disk2Track17.mp3" MP3
  TRACK 01 AUDIO
    TITLE "2:cjc065_0673"
    INDEX 01 00:00:00
  TRACK 02 AUDIO
    TITLE "2:cjc065_0674"
    INDEX 01 00:29:48
  TRACK 03 AUDIO
    TITLE "2:cjc065_0675"
    INDEX 01 00:35:15
  TRACK 04 AUDIO
    TITLE "2:cjc065_0676"
    INDEX 01 00:52:04
  TRACK 05 AUDIO
    TITLE "0:"
    INDEX 01 00:59:73
